<svg height='100px' width='100px'  fill="#54c8ff" xmlns="http://www.w3.org/2000/svg" xmlns:xlink="http://www.w3.org/1999/xlink" version="1.1" x="0px" y="0px" viewBox="0 0 64 64" enable-background="new 0 0 64 64" xml:space="preserve"><g><path fill-rule="evenodd" clip-rule="evenodd" d="M32.147,40.618v8.068c0,0.143-0.117,0.26-0.26,0.26l0,0   c-0.117,0-0.234-0.117-0.234-0.26v-8.068c0.117,0,0.234,0,0.353,0C32.053,40.618,32.1,40.618,32.147,40.618L32.147,40.618z"></path></g><g><path fill-rule="evenodd" clip-rule="evenodd" d="M31.888,14.877L31.888,14.877c0.143,0,0.26,0.119,0.26,0.238v8.28   c-0.047,0-0.095,0-0.141,0c-0.119,0-0.236,0-0.353,0v-8.28C31.654,14.996,31.771,14.877,31.888,14.877L31.888,14.877z"></path></g><g><path fill-rule="evenodd" clip-rule="evenodd" d="M31.912,12.502c1.319,0,2.375,1.059,2.375,2.375c0,1.318-1.057,2.377-2.375,2.377   c-1.318,0-2.377-1.059-2.377-2.377C29.534,13.561,30.593,12.502,31.912,12.502L31.912,12.502z"></path></g><g><path fill-rule="evenodd" clip-rule="evenodd" d="M32.076,46.735c1.319,0,2.376,1.081,2.376,2.399c0,1.294-1.057,2.377-2.376,2.377   c-1.316,0-2.375-1.083-2.375-2.377C29.701,47.815,30.76,46.735,32.076,46.735L32.076,46.735z"></path></g><g><path fill-rule="evenodd" clip-rule="evenodd" d="M40.616,31.864h8.07c0.143,0,0.26,0.095,0.26,0.236l0,0   c0,0.143-0.117,0.259-0.26,0.259h-8.07c0-0.117,0-0.236,0-0.353C40.616,31.959,40.616,31.912,40.616,31.864L40.616,31.864z"></path></g><g><path fill-rule="evenodd" clip-rule="evenodd" d="M14.877,32.1L14.877,32.1c0-0.141,0.117-0.236,0.236-0.236h8.28   c0,0.048,0,0.095,0,0.143c0,0.117,0,0.236,0,0.353h-8.28C14.995,32.359,14.877,32.243,14.877,32.1L14.877,32.1z"></path></g><g><path fill-rule="evenodd" clip-rule="evenodd" d="M12.502,32.076c0-1.317,1.059-2.375,2.375-2.375s2.375,1.059,2.375,2.375   c0,1.318-1.059,2.377-2.375,2.377S12.502,33.395,12.502,32.076L12.502,32.076z"></path></g><g><path fill-rule="evenodd" clip-rule="evenodd" d="M46.733,31.912c0-1.317,1.083-2.375,2.401-2.375c1.293,0,2.375,1.059,2.375,2.375   c0,1.318-1.082,2.377-2.375,2.377C47.816,34.289,46.733,33.23,46.733,31.912L46.733,31.912z"></path></g><g><path fill-rule="evenodd" clip-rule="evenodd" d="M38.193,37.983l5.717,5.716c0.095,0.095,0.095,0.258,0,0.353l0,0   c-0.094,0.093-0.258,0.093-0.352,0l-5.718-5.716C37.958,38.219,38.076,38.1,38.193,37.983L38.193,37.983z"></path></g><g><path fill-rule="evenodd" clip-rule="evenodd" d="M19.819,19.961L19.819,19.961c0.093-0.095,0.26-0.095,0.353,0l5.833,5.857   c-0.117,0.119-0.234,0.236-0.329,0.353l-5.857-5.859C19.724,20.219,19.724,20.054,19.819,19.961L19.819,19.961z"></path></g><g><path fill-rule="evenodd" clip-rule="evenodd" d="M18.147,18.266c0.942-0.918,2.447-0.918,3.365,0c0.942,0.942,0.942,2.447,0,3.365   c-0.918,0.941-2.423,0.941-3.365,0C17.231,20.712,17.231,19.208,18.147,18.266L18.147,18.266z"></path></g><g><path fill-rule="evenodd" clip-rule="evenodd" d="M42.477,42.359c0.939-0.918,2.446-0.918,3.362,0c0.942,0.94,0.942,2.447,0,3.363   c-0.916,0.942-2.423,0.942-3.362,0C41.559,44.806,41.559,43.299,42.477,42.359L42.477,42.359z"></path></g><g><path fill-rule="evenodd" clip-rule="evenodd" d="M37.981,25.818l5.719-5.716c0.093-0.095,0.257-0.095,0.353,0l0,0   c0.093,0.093,0.093,0.258,0,0.351l-5.719,5.718C38.217,26.054,38.099,25.938,37.981,25.818L37.981,25.818z"></path></g><g><path fill-rule="evenodd" clip-rule="evenodd" d="M19.959,44.193L19.959,44.193c-0.095-0.093-0.095-0.258,0-0.353l5.859-5.857   c0.117,0.117,0.234,0.236,0.353,0.353l-5.859,5.857C20.219,44.286,20.055,44.286,19.959,44.193L19.959,44.193z"></path></g><g><path fill-rule="evenodd" clip-rule="evenodd" d="M18.266,45.841c-0.918-0.918-0.918-2.425,0-3.365   c0.942-0.918,2.447-0.918,3.365,0c0.94,0.939,0.94,2.447,0,3.365C20.713,46.78,19.208,46.78,18.266,45.841L18.266,45.841z"></path></g><g><path fill-rule="evenodd" clip-rule="evenodd" d="M42.357,21.512c-0.918-0.916-0.918-2.423,0-3.363   c0.941-0.918,2.446-0.918,3.365,0c0.941,0.94,0.941,2.447,0,3.363C44.804,22.456,43.299,22.456,42.357,21.512L42.357,21.512z"></path></g><g><path fill-rule="evenodd" clip-rule="evenodd" d="M28.995,37.134l-2.895,4.8c-0.047,0.071-0.165,0.095-0.236,0.047l0,0   c-0.069-0.047-0.093-0.165-0.046-0.236l2.893-4.776c0.071,0.047,0.141,0.095,0.212,0.119   C28.947,37.112,28.971,37.134,28.995,37.134L28.995,37.134z"></path></g><g><path fill-rule="evenodd" clip-rule="evenodd" d="M38.076,21.843L38.076,21.843c0.096,0.046,0.117,0.141,0.069,0.234l-2.964,4.872   c-0.046,0-0.069-0.024-0.093-0.048c-0.072-0.047-0.142-0.071-0.213-0.119l2.965-4.894C37.888,21.819,38.005,21.795,38.076,21.843   L38.076,21.843z"></path></g><g><path fill-rule="evenodd" clip-rule="evenodd" d="M38.947,20.431c0.775,0.47,1.011,1.481,0.541,2.258   c-0.472,0.777-1.483,1.035-2.261,0.563c-0.775-0.47-1.011-1.481-0.539-2.256C37.158,20.219,38.172,19.961,38.947,20.431   L38.947,20.431z"></path></g><g><path fill-rule="evenodd" clip-rule="evenodd" d="M26.76,40.759c0.775,0.47,1.033,1.481,0.563,2.258   c-0.47,0.777-1.481,1.011-2.259,0.542c-0.777-0.47-1.035-1.483-0.565-2.258C24.972,40.523,25.983,40.289,26.76,40.759L26.76,40.759   z"></path></g><g><path fill-rule="evenodd" clip-rule="evenodd" d="M37.135,34.995l4.8,2.917c0.072,0.047,0.094,0.141,0.048,0.236l0,0   c-0.048,0.071-0.164,0.093-0.235,0.047L36.97,35.3c0.048-0.072,0.096-0.141,0.117-0.212C37.111,35.064,37.135,35.042,37.135,34.995   L37.135,34.995z"></path></g><g><path fill-rule="evenodd" clip-rule="evenodd" d="M21.841,25.912L21.841,25.912c0.047-0.069,0.143-0.093,0.236-0.046l4.87,2.964   c0,0.024-0.024,0.048-0.045,0.093c-0.048,0.048-0.072,0.119-0.119,0.212l-4.894-2.988C21.819,26.1,21.795,26.007,21.841,25.912   L21.841,25.912z"></path></g><g><path fill-rule="evenodd" clip-rule="evenodd" d="M20.431,25.065c0.47-0.775,1.481-1.035,2.259-0.563   c0.775,0.47,1.035,1.481,0.563,2.258c-0.47,0.775-1.481,1.035-2.258,0.563C20.219,26.854,19.959,25.842,20.431,25.065   L20.431,25.065z"></path></g><g><path fill-rule="evenodd" clip-rule="evenodd" d="M40.757,37.229c0.473-0.775,1.483-1.011,2.261-0.542   c0.775,0.47,1.012,1.483,0.541,2.258c-0.472,0.777-1.482,1.013-2.26,0.542C40.523,39.018,40.287,38.005,40.757,37.229   L40.757,37.229z"></path></g><g><path fill-rule="evenodd" clip-rule="evenodd" d="M33.512,37.771l1.341,5.411c0.023,0.093-0.046,0.188-0.141,0.212l0,0   c-0.071,0.021-0.165-0.024-0.188-0.119l-1.341-5.435C33.3,37.818,33.396,37.794,33.512,37.771L33.512,37.771z"></path></g><g><path fill-rule="evenodd" clip-rule="evenodd" d="M29.112,20.526L29.112,20.526c0.093-0.026,0.188,0.021,0.212,0.115l1.364,5.554   c-0.117,0.023-0.236,0.047-0.353,0.093l-1.34-5.576C28.971,20.62,29.017,20.548,29.112,20.526L29.112,20.526z"></path></g><g><path fill-rule="evenodd" clip-rule="evenodd" d="M28.735,18.926c0.871-0.236,1.765,0.305,1.977,1.199   c0.234,0.871-0.307,1.763-1.199,1.975c-0.871,0.236-1.767-0.305-1.977-1.2C27.3,20.031,27.841,19.136,28.735,18.926L28.735,18.926z   "></path></g><g><path fill-rule="evenodd" clip-rule="evenodd" d="M34.476,41.887c0.895-0.21,1.789,0.33,2.001,1.202   c0.212,0.893-0.329,1.787-1.2,1.999c-0.894,0.212-1.788-0.33-2-1.2C33.064,42.993,33.605,42.099,34.476,41.887L34.476,41.887z"></path></g><g><path fill-rule="evenodd" clip-rule="evenodd" d="M37.77,30.478l5.411-1.319c0.095-0.023,0.188,0.024,0.212,0.119l0,0   c0.023,0.093-0.024,0.187-0.117,0.21l-5.435,1.341C37.816,30.712,37.793,30.595,37.77,30.478L37.77,30.478z"></path></g><g><path fill-rule="evenodd" clip-rule="evenodd" d="M20.524,34.899L20.524,34.899c-0.024-0.093,0.024-0.186,0.117-0.21l5.554-1.366   c0.024,0.117,0.045,0.212,0.093,0.329l-5.576,1.366C20.62,35.042,20.548,34.995,20.524,34.899L20.524,34.899z"></path></g><g><path fill-rule="evenodd" clip-rule="evenodd" d="M18.924,35.276c-0.234-0.895,0.305-1.789,1.2-1.999   c0.871-0.212,1.765,0.329,1.977,1.199c0.234,0.893-0.305,1.787-1.199,1.999C20.031,36.688,19.137,36.147,18.924,35.276   L18.924,35.276z"></path></g><g><path fill-rule="evenodd" clip-rule="evenodd" d="M41.888,29.512c-0.213-0.87,0.329-1.765,1.199-1.977   c0.895-0.234,1.789,0.307,2.001,1.201c0.212,0.869-0.329,1.763-1.2,1.975C42.994,30.948,42.1,30.407,41.888,29.512L41.888,29.512z"></path></g><g><path fill-rule="evenodd" clip-rule="evenodd" d="M32.687,28.666l0.708-3.107c0-0.045,0.045-0.093,0.116-0.069l0,0   c0.046,0,0.069,0.047,0.069,0.117l-0.706,3.107c-0.048,0-0.093-0.024-0.141-0.024C32.734,28.666,32.711,28.666,32.687,28.666   L32.687,28.666z"></path></g><g><path fill-rule="evenodd" clip-rule="evenodd" d="M30.571,38.617L30.571,38.617c-0.047-0.023-0.095-0.069-0.071-0.117l0.706-3.2   c0.023,0.023,0.023,0.023,0.047,0.023c0.045,0,0.093,0.024,0.141,0.024l-0.706,3.2C30.665,38.594,30.617,38.617,30.571,38.617   L30.571,38.617z"></path></g><g><path fill-rule="evenodd" clip-rule="evenodd" d="M30.359,39.535c-0.518-0.119-0.825-0.636-0.73-1.13   c0.117-0.518,0.635-0.823,1.13-0.706c0.516,0.095,0.823,0.613,0.704,1.106C31.371,39.323,30.853,39.628,30.359,39.535   L30.359,39.535z"></path></g><g><path fill-rule="evenodd" clip-rule="evenodd" d="M33.23,26.312c-0.496-0.117-0.825-0.611-0.708-1.128   c0.119-0.496,0.613-0.825,1.131-0.706c0.493,0.117,0.822,0.611,0.705,1.128C34.242,26.1,33.746,26.429,33.23,26.312L33.23,26.312z"></path></g><g><path fill-rule="evenodd" clip-rule="evenodd" d="M28.664,31.325l-3.105-0.706c-0.069,0-0.093-0.071-0.069-0.119l0,0   c0-0.045,0.046-0.093,0.117-0.069l3.105,0.682c0,0.048-0.022,0.095-0.022,0.141C28.664,31.277,28.664,31.301,28.664,31.325   L28.664,31.325z"></path></g><g><path fill-rule="evenodd" clip-rule="evenodd" d="M38.618,33.44L38.618,33.44c-0.024,0.047-0.071,0.071-0.119,0.071l-3.2-0.706   c0.023-0.024,0.023-0.047,0.023-0.069c0-0.047,0.023-0.095,0.023-0.119l3.201,0.706C38.594,33.323,38.618,33.395,38.618,33.44   L38.618,33.44z"></path></g><g><path fill-rule="evenodd" clip-rule="evenodd" d="M39.534,33.652c-0.117,0.496-0.635,0.825-1.129,0.706   c-0.518-0.117-0.822-0.611-0.705-1.128c0.093-0.494,0.61-0.825,1.106-0.706C39.323,32.641,39.629,33.135,39.534,33.652   L39.534,33.652z"></path></g><g><path fill-rule="evenodd" clip-rule="evenodd" d="M26.313,30.759c-0.117,0.518-0.611,0.823-1.13,0.706   c-0.494-0.095-0.823-0.613-0.706-1.106c0.119-0.518,0.613-0.823,1.13-0.729C26.1,29.748,26.429,30.266,26.313,30.759L26.313,30.759   z"></path></g><g><path fill-rule="evenodd" clip-rule="evenodd" d="M30.123,29.159l-1.693-2.707c-0.047-0.023-0.023-0.093,0.024-0.117l0,0   c0.048-0.048,0.093-0.024,0.141,0.024l1.695,2.704C30.242,29.088,30.195,29.112,30.123,29.159L30.123,29.159z"></path></g><g><path fill-rule="evenodd" clip-rule="evenodd" d="M35.653,37.699L35.653,37.699c-0.048,0.024-0.095,0-0.119-0.045l-1.763-2.754   c0.069-0.023,0.117-0.069,0.163-0.093l1.767,2.752C35.723,37.606,35.701,37.654,35.653,37.699L35.653,37.699z"></path></g><g><path fill-rule="evenodd" clip-rule="evenodd" d="M36.147,38.477c-0.425,0.282-1.012,0.165-1.295-0.282   c-0.281-0.424-0.141-1.013,0.306-1.294c0.424-0.282,1.013-0.141,1.294,0.281C36.736,37.63,36.594,38.219,36.147,38.477   L36.147,38.477z"></path></g><g><path fill-rule="evenodd" clip-rule="evenodd" d="M28.852,27.113c-0.446,0.258-1.011,0.141-1.292-0.306   c-0.284-0.424-0.143-1.013,0.281-1.294c0.446-0.282,1.011-0.141,1.295,0.281C29.417,26.243,29.3,26.83,28.852,27.113L28.852,27.113   z"></path></g><g><path fill-rule="evenodd" clip-rule="evenodd" d="M29.16,33.865l-2.707,1.717c-0.024,0.024-0.093,0.024-0.117-0.021l0,0   c-0.047-0.048-0.023-0.119,0.024-0.143l2.705-1.717C29.088,33.771,29.112,33.819,29.16,33.865L29.16,33.865z"></path></g><g><path fill-rule="evenodd" clip-rule="evenodd" d="M37.7,28.336L37.7,28.336c0.023,0.046,0,0.117-0.048,0.141L34.9,30.218   c-0.024-0.048-0.071-0.095-0.094-0.165l2.752-1.741C37.604,28.289,37.652,28.289,37.7,28.336L37.7,28.336z"></path></g><g><path fill-rule="evenodd" clip-rule="evenodd" d="M38.477,27.843c0.282,0.446,0.165,1.011-0.283,1.293   c-0.424,0.283-1.011,0.165-1.295-0.282c-0.281-0.446-0.141-1.011,0.284-1.295C37.628,27.278,38.217,27.418,38.477,27.843   L38.477,27.843z"></path></g><g><path fill-rule="evenodd" clip-rule="evenodd" d="M27.111,35.159c0.26,0.422,0.141,1.011-0.305,1.295   c-0.424,0.282-1.011,0.141-1.295-0.307c-0.282-0.422-0.141-1.011,0.284-1.293C26.241,34.57,26.83,34.713,27.111,35.159   L27.111,35.159z"></path></g><g><path fill-rule="evenodd" clip-rule="evenodd" d="M37.442,42.523l4.915,9.952c0.095,0.165,0.023,0.377-0.141,0.47l0,0   c-0.165,0.072-0.377,0-0.47-0.165l-4.918-9.952c0.141-0.069,0.282-0.141,0.425-0.212C37.323,42.595,37.371,42.545,37.442,42.523   L37.442,42.523z"></path></g><g><path fill-rule="evenodd" clip-rule="evenodd" d="M21.419,10.949L21.419,10.949c0.165-0.071,0.376,0,0.446,0.165l5.058,10.188   c-0.069,0.023-0.117,0.047-0.188,0.095c-0.141,0.07-0.282,0.141-0.422,0.21l-5.037-10.188   C21.183,11.255,21.254,11.044,21.419,10.949L21.419,10.949z"></path></g><g><path fill-rule="evenodd" clip-rule="evenodd" d="M20.007,8.033c1.598-0.801,3.575-0.143,4.376,1.481   c0.799,1.6,0.141,3.577-1.483,4.376c-1.624,0.801-3.575,0.141-4.376-1.481C17.725,10.785,18.383,8.832,20.007,8.033L20.007,8.033z"></path></g><g><path fill-rule="evenodd" clip-rule="evenodd" d="M41.112,50.122c1.598-0.799,3.575-0.141,4.376,1.483   c0.799,1.6,0.141,3.577-1.483,4.376c-1.624,0.799-3.577,0.141-4.376-1.483C38.828,52.875,39.488,50.922,41.112,50.122   L41.112,50.122z"></path></g><g><path fill-rule="evenodd" clip-rule="evenodd" d="M42.523,26.572l9.952-4.941c0.165-0.072,0.375,0,0.47,0.165l0,0   c0.07,0.165,0,0.376-0.164,0.446l-9.952,4.941c-0.071-0.141-0.141-0.282-0.212-0.446C42.594,26.689,42.546,26.62,42.523,26.572   L42.523,26.572z"></path></g><g><path fill-rule="evenodd" clip-rule="evenodd" d="M10.95,42.571L10.95,42.571c-0.071-0.167,0-0.354,0.165-0.448l10.188-5.035   c0.022,0.046,0.045,0.117,0.093,0.165c0.069,0.141,0.141,0.282,0.21,0.422l-10.186,5.061C11.255,42.829,11.043,42.759,10.95,42.571   L10.95,42.571z"></path></g><g><path fill-rule="evenodd" clip-rule="evenodd" d="M8.031,44.004c-0.799-1.624-0.141-3.575,1.483-4.376   c1.6-0.799,3.575-0.141,4.376,1.483c0.799,1.6,0.141,3.575-1.483,4.376C10.783,46.287,8.832,45.628,8.031,44.004L8.031,44.004z"></path></g><g><path fill-rule="evenodd" clip-rule="evenodd" d="M50.122,22.902c-0.801-1.624-0.141-3.577,1.483-4.376   c1.6-0.801,3.575-0.143,4.376,1.481c0.799,1.6,0.141,3.577-1.483,4.376C52.874,25.184,50.921,24.523,50.122,22.902L50.122,22.902z"></path></g><g><path fill-rule="evenodd" clip-rule="evenodd" d="M43.275,35.605l10.541,3.553c0.164,0.047,0.26,0.258,0.212,0.424l0,0   c-0.071,0.187-0.26,0.282-0.424,0.21L43.063,36.24C43.135,36.03,43.204,35.817,43.275,35.605L43.275,35.605z"></path></g><g><path fill-rule="evenodd" clip-rule="evenodd" d="M9.631,24.595L9.631,24.595c0.071-0.165,0.26-0.257,0.448-0.212l10.774,3.646   c-0.093,0.212-0.165,0.424-0.212,0.636L9.867,25.041C9.679,24.972,9.583,24.783,9.631,24.595L9.631,24.595z"></path></g><g><path fill-rule="evenodd" clip-rule="evenodd" d="M6.55,23.536c0.587-1.717,2.447-2.635,4.164-2.046   c1.693,0.563,2.612,2.423,2.046,4.14c-0.587,1.717-2.447,2.635-4.14,2.048C6.903,27.089,5.985,25.253,6.55,23.536L6.55,23.536z"></path></g><g><path fill-rule="evenodd" clip-rule="evenodd" d="M51.25,38.381c0.565-1.717,2.426-2.633,4.143-2.046   c1.717,0.565,2.635,2.423,2.046,4.14c-0.563,1.695-2.423,2.613-4.14,2.048C51.582,41.935,50.663,40.077,51.25,38.381L51.25,38.381z   "></path></g><g><path fill-rule="evenodd" clip-rule="evenodd" d="M35.605,20.712l3.554-10.517c0.046-0.188,0.258-0.281,0.422-0.21l0,0   c0.188,0.045,0.282,0.234,0.213,0.422L36.24,20.949C36.028,20.854,35.818,20.784,35.605,20.712L35.605,20.712z"></path></g><g><path fill-rule="evenodd" clip-rule="evenodd" d="M24.595,54.357L24.595,54.357c-0.165-0.046-0.26-0.258-0.212-0.422l3.646-10.777   c0.212,0.072,0.424,0.141,0.635,0.212l-3.623,10.776C24.972,54.333,24.784,54.428,24.595,54.357L24.595,54.357z"></path></g><g><path fill-rule="evenodd" clip-rule="evenodd" d="M23.537,57.44c-1.717-0.565-2.635-2.423-2.046-4.142   c0.563-1.717,2.423-2.635,4.14-2.046c1.717,0.565,2.635,2.423,2.046,4.14C27.089,57.109,25.253,58.027,23.537,57.44L23.537,57.44z"></path></g><g><path fill-rule="evenodd" clip-rule="evenodd" d="M38.382,12.76c-1.717-0.587-2.635-2.445-2.046-4.14   c0.563-1.717,2.423-2.635,4.14-2.07c1.693,0.587,2.611,2.447,2.048,4.166C41.935,12.409,40.077,13.325,38.382,12.76L38.382,12.76z"></path></g></svg>