<svg height='100px' width='100px'  fill="#54c8ff" xmlns:x="http://ns.adobe.com/Extensibility/1.0/" xmlns:i="http://ns.adobe.com/AdobeIllustrator/10.0/" xmlns:graph="http://ns.adobe.com/Graphs/1.0/" xmlns="http://www.w3.org/2000/svg" xmlns:xlink="http://www.w3.org/1999/xlink" version="1.1" x="0px" y="0px" viewBox="0 0 100 100" style="enable-background:new 0 0 100 100;" xml:space="preserve"><g><g i:extraneous="self"><g><g><path d="M95.9,79.7L83.2,67.8c3.7-4.9,5.9-11,5.9-17.6c0-5.4-1.5-10.4-4-14.8l-5.8,5.8c1.3,2.7,2,5.8,2,9      c0,9.8-6.5,18-15.4,20.7c1,2.6,1,5.5-0.2,8.1c4.3-0.9,8.2-2.7,11.6-5.3l11.8,12.8c0.1,0.1,0.2,0.2,0.3,0.3      c2,1.8,5.1,1.7,6.9-0.3C98,84.6,97.9,81.5,95.9,79.7z"></path></g><g><path d="M30.9,51c2.5,0,4.9,0.3,7.2,0.8c0-0.5-0.1-1-0.1-1.6c0-11.9,9.7-21.6,21.6-21.6c0.2,0,0.4,0,0.7,0l6.8-6.8      c-2.4-0.6-4.9-1-7.5-1c-16.2,0-29.4,13.2-29.4,29.4c0,0.3,0,0.5,0,0.8C30.5,51,30.7,51,30.9,51z"></path></g><g><path d="M68.9,51.3c-0.1-1-0.5-2-1.3-2.7l-3.1-2.8l23.7-23.7v5.3c0,2.1,1.7,3.9,3.9,3.9c2.1,0,3.9-1.7,3.9-3.9V12.7      c0-2.1-1.7-3.9-3.9-3.9H77.3c-2.1,0-3.9,1.7-3.9,3.9s1.7,3.9,3.9,3.9h5.3L56.1,43.2c-0.8,0.8-1.2,1.8-1.1,2.9s0.5,2.1,1.3,2.8      l3.2,2.9l-6.2,6.7c2.4,1.6,4.5,3.3,6.2,4.8l8.5-9.2C68.6,53.4,69,52.3,68.9,51.3z"></path></g><g><path d="M30.9,58.3C15.7,58.3,3.8,72,3.3,72.6c-1.1,1.2-1.1,3.1,0,4.3c0.5,0.6,12.4,14.3,27.6,14.3S58,77.5,58.5,76.9      c1.1-1.2,1.1-3.1,0-4.3C58,72,46.1,58.3,30.9,58.3z M30.9,86.2c-6.3,0-11.5-5.1-11.5-11.5c0-6.3,5.1-11.5,11.5-11.5      c6.3,0,11.5,5.1,11.5,11.5C42.4,81.1,37.2,86.2,30.9,86.2z"></path></g><g><path d="M30.9,67.8c-0.7,0-1.3,0.1-1.9,0.3c0.4,0.6,0.7,1.3,0.7,2c0,1.9-1.5,3.4-3.4,3.4c-0.8,0-1.4-0.3-2-0.7      c-0.2,0.6-0.3,1.2-0.3,1.9c0,3.8,3.1,6.9,6.9,6.9c3.8,0,6.9-3.1,6.9-6.9C37.8,70.9,34.7,67.8,30.9,67.8z"></path></g></g></g></g></svg>