<svg height='100px' width='100px'  fill="#54c8ff" xmlns="http://www.w3.org/2000/svg" xmlns:xlink="http://www.w3.org/1999/xlink" viewBox="0 0 68 68" version="1.1" x="0px" y="0px"><title>search, items, nodes, encryption, mining, crypto</title><desc>Created with Sketch.</desc><g stroke="none" stroke-width="1" fill="none" fill-rule="evenodd"><g transform="translate(-656.000000, -536.000000)" fill="#54c8ff" fill-rule="nonzero"><path d="M717.497802,594.669374 L723.414214,600.585786 C724.195262,601.366835 724.195262,602.633165 723.414214,603.414214 C722.633165,604.195262 721.366835,604.195262 720.585786,603.414214 L714.669374,597.497802 C712.519467,599.071133 709.868208,600 707,600 C699.820298,600 694,594.179702 694,587 C694,579.820298 699.820298,574 707,574 C714.179702,574 720,579.820298 720,587 C720,589.868208 719.071133,592.519467 717.497802,594.669374 L717.497802,594.669374 Z M707,578 C702.029437,578 698,582.029437 698,587 C698,591.970563 702.029437,596 707,596 C711.970563,596 716,591.970563 716,587 C716,582.029437 711.970563,578 707,578 Z M660,536 L680,536 C682.209139,536 684,537.790861 684,540 L684,560 C684,562.209139 682.209139,564 680,564 L660,564 C657.790861,564 656,562.209139 656,560 L656,540 C656,537.790861 657.790861,536 660,536 Z M660,574 L680,574 C682.209139,574 684,575.790861 684,578 L684,598 C684,600.209139 682.209139,602 680,602 L660,602 C657.790861,602 656,600.209139 656,598 L656,578 C656,575.790861 657.790861,574 660,574 Z M698,536 L718,536 C720.209139,536 722,537.790861 722,540 L722,560 C722,562.209139 720.209139,564 718,564 L698,564 C695.790861,564 694,562.209139 694,560 L694,540 C694,537.790861 695.790861,536 698,536 Z"></path></g></g></svg>